<?xml version="1.0" encoding="UTF-8"?>
<svg id="Layer_1" xmlns="http://www.w3.org/2000/svg" version="1.1" viewBox="0 0 180 180">
  <!-- Generator: Adobe Illustrator 29.8.2, SVG Export Plug-In . SVG Version: 2.1.1 Build 3)  -->
  <defs>
    <style>
      .st0 {
        fill: #0353df;
      }
    </style>
  </defs>
  <g>
    <path class="st0" d="M126.03,18.77c6.71,0,12.17,5.46,12.17,12.17s-5.46,12.17-12.17,12.17-12.17-5.46-12.17-12.17,5.46-12.17,12.17-12.17M126.03,2.77c-15.56,0-28.17,12.61-28.17,28.17s12.61,28.17,28.17,28.17,28.17-12.61,28.17-28.17-12.61-28.17-28.17-28.17h0Z"/>
    <polygon class="st0" points="111.68 18.84 26.63 18.84 26.63 43.04 111.68 43.04 111.68 18.84 111.68 18.84"/>
  </g>
  <g>
    <path class="st0" d="M126.03,137.07c6.71,0,12.17,5.46,12.17,12.17s-5.46,12.17-12.17,12.17-12.17-5.46-12.17-12.17,5.46-12.17,12.17-12.17M126.03,121.07c-15.56,0-28.17,12.61-28.17,28.17s12.61,28.17,28.17,28.17,28.17-12.61,28.17-28.17-12.61-28.17-28.17-28.17h0Z"/>
    <polygon class="st0" points="111.68 137.14 26.63 137.14 26.63 161.34 111.68 161.34 111.68 137.14 111.68 137.14"/>
  </g>
  <g>
    <path class="st0" d="M54.81,78.9c6.71,0,12.17,5.46,12.17,12.17s-5.46,12.17-12.17,12.17-12.17-5.46-12.17-12.17,5.46-12.17,12.17-12.17M54.81,62.9c-15.56,0-28.17,12.61-28.17,28.17s12.61,28.17,28.17,28.17,28.17-12.61,28.17-28.17-12.61-28.17-28.17-28.17h0Z"/>
    <polygon class="st0" points="154.2 78.97 69.16 78.97 69.16 103.17 154.2 103.17 154.2 78.97 154.2 78.97"/>
  </g>
</svg>